<svg width="21" height="21" viewBox="0 0 21 21" fill="none" xmlns="http://www.w3.org/2000/svg">
<g clip-path="url(#clip0_3_15)">
<path fill-rule="evenodd" clip-rule="evenodd" d="M10.5002 0.4375C8.00757 0.438793 5.59663 1.32165 3.69853 2.92821C1.80042 4.53476 0.538931 6.76026 0.139617 9.20675C-0.259697 11.6532 0.229201 14.1612 1.5189 16.2822C2.8086 18.4031 4.815 19.9988 7.17933 20.7838C7.70094 20.8807 7.89741 20.5574 7.89741 20.2825C7.89741 20.0076 7.88698 19.2106 7.8835 18.3393C4.96249 18.9703 4.34525 17.1067 4.34525 17.1067C3.86885 15.8965 3.18032 15.5784 3.18032 15.5784C2.22752 14.9318 3.25162 14.9439 3.25162 14.9439C4.307 15.0183 4.86165 16.021 4.86165 16.021C5.79707 17.6167 7.31842 17.1551 7.91653 16.8854C8.01042 16.2094 8.28341 15.7496 8.5842 15.4885C6.25087 15.2257 3.7993 14.3302 3.7993 10.3297C3.78484 9.29225 4.17203 8.28892 4.88077 7.52735C4.77298 7.26457 4.41306 6.20308 4.98335 4.76125C4.98335 4.76125 5.86488 4.48119 7.87134 5.83139C9.59235 5.36342 11.4081 5.36342 13.1292 5.83139C15.1339 4.48119 16.0137 4.76125 16.0137 4.76125C16.5857 6.19962 16.2258 7.26111 16.118 7.52735C16.829 8.28904 17.217 9.29412 17.2012 10.3332C17.2012 14.3423 14.7444 15.2257 12.4076 15.4833C12.7832 15.8083 13.1187 16.4428 13.1187 17.4179C13.1187 18.8147 13.1066 19.9385 13.1066 20.2825C13.1066 20.5608 13.2961 20.8859 13.8281 20.7838C16.1927 19.9987 18.1993 18.4027 19.489 16.2814C20.7787 14.1601 21.2673 11.6518 20.8675 9.20504C20.4678 6.75833 19.2057 4.53281 17.3069 2.92653C15.4082 1.32025 12.9967 0.437974 10.5037 0.4375H10.5002Z" fill="#14B497"/>
<path d="M3.97637 15.428C3.95376 15.4799 3.87031 15.4954 3.8025 15.4591C3.73469 15.4228 3.68427 15.3554 3.70861 15.3018C3.73295 15.2482 3.81467 15.2344 3.88248 15.2707C3.95029 15.307 4.00245 15.3761 3.97637 15.428Z" fill="#14B497"/>
<path d="M4.40239 15.9C4.36638 15.918 4.32518 15.9231 4.28585 15.9142C4.24652 15.9054 4.21151 15.8833 4.18679 15.8516C4.11898 15.779 4.10506 15.6787 4.15722 15.6338C4.20938 15.5888 4.30328 15.6096 4.37109 15.6822C4.4389 15.7548 4.45455 15.855 4.40239 15.9Z" fill="#14B497"/>
<path d="M4.8162 16.4999C4.75187 16.5448 4.64232 16.4999 4.58147 16.41C4.56464 16.3938 4.55126 16.3745 4.54212 16.3531C4.53298 16.3317 4.52826 16.3087 4.52826 16.2855C4.52826 16.2623 4.53298 16.2393 4.54212 16.2179C4.55126 16.1965 4.56464 16.1772 4.58147 16.161C4.6458 16.1178 4.75534 16.161 4.8162 16.2492C4.87705 16.3374 4.87879 16.4549 4.8162 16.4999Z" fill="#14B497"/>
<path d="M5.37779 17.0807C5.32041 17.1447 5.20392 17.1274 5.10829 17.041C5.01267 16.9545 4.99006 16.837 5.04743 16.7747C5.10481 16.7125 5.2213 16.7298 5.32041 16.8145C5.41952 16.8992 5.43864 17.0185 5.37779 17.0807Z" fill="#14B497"/>
<path d="M6.1654 17.4196C6.13932 17.5008 6.02109 17.5372 5.90286 17.5026C5.78463 17.468 5.70638 17.3712 5.72899 17.2882C5.75159 17.2052 5.87156 17.1672 5.99153 17.2052C6.1115 17.2433 6.18801 17.3349 6.1654 17.4196Z" fill="#14B497"/>
<path d="M7.02435 17.4783C7.02435 17.5631 6.92699 17.6357 6.80181 17.6374C6.67662 17.6391 6.57404 17.57 6.57404 17.4853C6.57404 17.4005 6.6714 17.3279 6.79658 17.3262C6.92177 17.3245 7.02435 17.3919 7.02435 17.4783Z" fill="#14B497"/>
<path d="M7.82416 17.3452C7.83981 17.43 7.75287 17.5181 7.62768 17.5389C7.5025 17.5596 7.39296 17.5095 7.37731 17.4265C7.36166 17.3435 7.45208 17.2536 7.57379 17.2311C7.69549 17.2087 7.80851 17.2605 7.82416 17.3452Z" fill="#14B497"/>
</g>
<defs>
<clipPath id="clip0_3_15">
<rect width="21" height="21" fill="white"/>
</clipPath>
</defs>
</svg>
