<svg width="21" height="21" viewBox="0 0 21 21" fill="none" xmlns="http://www.w3.org/2000/svg">
<path d="M6.60639 19.0313C14.529 19.0313 18.8635 12.4659 18.8635 6.77416C18.8635 6.58959 18.8594 6.40092 18.8512 6.21635C19.6944 5.60656 20.4221 4.85125 21 3.98592C20.2147 4.33531 19.3809 4.56349 18.5272 4.66267C19.4261 4.12383 20.0992 3.27732 20.4217 2.28008C19.576 2.78127 18.6511 3.13482 17.6868 3.32556C17.037 2.63515 16.1779 2.17801 15.2422 2.02483C14.3066 1.87164 13.3465 2.03095 12.5105 2.47811C11.6745 2.92528 11.0091 3.6354 10.6171 4.49868C10.2252 5.36196 10.1285 6.33032 10.3421 7.25404C8.62968 7.16811 6.95444 6.72327 5.42498 5.94837C3.89552 5.17346 2.54598 4.08579 1.46385 2.75586C0.91385 3.70412 0.745549 4.82622 0.993152 5.89411C1.24075 6.962 1.88568 7.89555 2.79686 8.50502C2.1128 8.4833 1.44373 8.29913 0.844922 7.96771V8.02103C0.844309 9.01616 1.18834 9.98079 1.81852 10.751C2.44871 11.5211 3.32616 12.0493 4.30172 12.2456C3.66805 12.419 3.00298 12.4443 2.35799 12.3195C2.63327 13.1753 3.16888 13.9238 3.89005 14.4606C4.61122 14.9973 5.48198 15.2956 6.3808 15.3136C4.85487 16.5123 2.9699 17.1624 1.02949 17.1593C0.685376 17.1588 0.341599 17.1377 0 17.0962C1.97125 18.3608 4.26434 19.0325 6.60639 19.0313Z" fill="#14B497"/>
</svg>
